<svg width="83" height="118" viewBox="0 0 83 118" fill="none" xmlns="http://www.w3.org/2000/svg">
<path opacity="0.5" d="M0 109.781L8.53597 117.557L11.0024 106.277L0 109.781ZM59.1425 70.2868L58.158 70.1117L59.1425 70.2868ZM25.1526 70.2868L25.9367 69.6662L25.1526 70.2868ZM80.8961 26.1279L79.9135 26.3138L80.8961 26.1279ZM5.8401 111.82C7.15443 111.971 8.52486 112.081 9.93909 112.141L10.0239 110.143C8.65831 110.085 7.33587 109.979 6.06884 109.833L5.8401 111.82ZM14.0492 112.17C15.3932 112.132 16.7641 112.046 18.1527 111.906L17.952 109.916C16.6129 110.051 15.2901 110.134 13.9925 110.171L14.0492 112.17ZM22.2295 111.34C23.5644 111.103 24.9076 110.812 26.2513 110.461L25.7458 108.526C24.4556 108.863 23.1644 109.143 21.8796 109.371L22.2295 111.34ZM30.1913 109.253C31.4755 108.798 32.7533 108.284 34.0176 107.704L33.1837 105.886C31.9759 106.44 30.7538 106.932 29.5239 107.368L30.1913 109.253ZM37.6894 105.806C38.8672 105.124 40.0262 104.378 41.1602 103.564L39.994 101.94C38.9143 102.715 37.8103 103.425 36.6876 104.075L37.6894 105.806ZM44.3997 100.985C45.4156 100.09 46.4039 99.1309 47.3592 98.1045L45.8952 96.7419C44.9852 97.7196 44.0444 98.6327 43.0774 99.4847L44.3997 100.985ZM50.0296 94.9404C50.8461 93.8731 51.6304 92.7462 52.3786 91.5574L50.6859 90.4921C49.9699 91.6298 49.2204 92.7066 48.4411 93.7252L50.0296 94.9404ZM54.423 87.9732C55.0378 86.7812 55.6194 85.536 56.1651 84.2358L54.3209 83.4618C53.7951 84.7146 53.2357 85.9121 52.6455 87.0565L54.423 87.9732ZM57.613 80.4019C58.0394 79.1405 58.4347 77.8335 58.7969 76.4794L56.8649 75.9626C56.5135 77.2761 56.1306 78.5419 55.7183 79.7614L57.613 80.4019ZM59.7373 72.495C59.8747 71.8277 60.0047 71.15 60.1271 70.4618L58.158 70.1117C58.0387 70.7823 57.9122 71.4422 57.7784 72.0915L59.7373 72.495ZM60.1271 70.4618C60.2467 69.789 60.3552 69.13 60.4529 68.4847L58.4754 68.1853C58.3804 68.8132 58.2747 69.4553 58.158 70.1117L60.1271 70.4618ZM60.9232 64.6463C61.0481 63.2822 61.1182 61.988 61.1366 60.7611L59.1368 60.731C59.1192 61.9031 59.0522 63.1464 58.9315 64.4639L60.9232 64.6463ZM61.0038 56.8323C60.8791 55.4183 60.6714 54.1132 60.3868 52.9125L58.4407 53.3736C58.7007 54.4709 58.8944 55.6798 59.0115 57.008L61.0038 56.8323ZM59.093 49.1417C58.4624 47.8047 57.698 46.6594 56.8182 45.6973L55.3423 47.047C56.0764 47.8498 56.7321 48.8246 57.2842 49.9949L59.093 49.1417ZM53.5159 43.1761C52.2814 42.5469 50.9542 42.1474 49.5749 41.9462L49.2862 43.9253C50.472 44.0983 51.5868 44.4376 52.6077 44.958L53.5159 43.1761ZM45.5147 41.8833C44.2151 42.0159 42.8973 42.284 41.5853 42.6671L42.1459 44.5869C43.3541 44.2341 44.552 43.9919 45.7176 43.873L45.5147 41.8833ZM37.8671 44.0591C36.6814 44.6 35.5151 45.2249 34.3863 45.92L35.435 47.623C36.4962 46.9695 37.5896 46.3839 38.6971 45.8788L37.8671 44.0591ZM31.1554 48.1822C30.1155 49.0055 29.1287 49.8877 28.2137 50.8157L29.6378 52.2199C30.4933 51.3522 31.4189 50.5245 32.3968 49.7503L31.1554 48.1822ZM25.6272 53.8257C24.815 54.9233 24.1073 56.0636 23.5314 57.23L25.3248 58.1155C25.8424 57.0672 26.4855 56.0281 27.2349 55.0154L25.6272 53.8257ZM22.1669 61.0509C21.8679 62.4231 21.7772 63.8113 21.9414 65.1849L23.9273 64.9474C23.7924 63.8197 23.8639 62.6567 24.121 61.4768L22.1669 61.0509ZM23.2139 69.1664C23.5379 69.7623 23.9221 70.3434 24.3684 70.9074L25.9367 69.6662C25.559 69.189 25.2386 68.7031 24.9709 68.2109L23.2139 69.1664ZM24.3684 70.9074C24.7999 71.4525 25.2623 71.9698 25.7529 72.4591L27.1652 71.043C26.7288 70.6078 26.3187 70.1488 25.9367 69.6662L24.3684 70.9074ZM28.9804 75.0373C30.1185 75.7644 31.3413 76.3879 32.631 76.9087L33.3799 75.0542C32.1969 74.5765 31.0848 74.0084 30.0572 73.3519L28.9804 75.0373ZM36.5258 78.1282C37.821 78.4276 39.1605 78.6406 40.5313 78.7677L40.716 76.7763C39.4303 76.6571 38.1797 76.4578 36.9762 76.1796L36.5258 78.1282ZM44.5709 78.8961C45.8974 78.8604 47.2414 78.7499 48.5929 78.5646L48.3212 76.5832C47.0404 76.7588 45.7691 76.8631 44.5171 76.8968L44.5709 78.8961ZM52.5472 77.8117C53.8376 77.4968 55.1263 77.114 56.4044 76.663L55.7389 74.777C54.5236 75.2058 53.2988 75.5696 52.0731 75.8687L52.5472 77.8117ZM60.1282 75.1381C61.3325 74.5739 62.5194 73.9459 63.6807 73.2538L62.6568 71.5357C61.5532 72.1935 60.4249 72.7905 59.2797 73.327L60.1282 75.1381ZM67.0322 71.0205C68.1007 70.2276 69.138 69.3742 70.1367 68.4601L68.7864 66.9848C67.8391 67.8518 66.8548 68.6616 65.8404 69.4144L67.0322 71.0205ZM72.9611 65.5908C73.8428 64.5958 74.682 63.5445 75.4722 62.4366L73.844 61.2752C73.0952 62.325 72.2999 63.3213 71.4642 64.2643L72.9611 65.5908ZM77.6357 59.0384C78.2851 57.8894 78.8852 56.6903 79.4304 55.441L77.5973 54.6411C77.0797 55.8272 76.5103 56.9648 75.8946 58.0542L77.6357 59.0384ZM80.8517 51.6809C81.2548 50.4311 81.6061 49.1385 81.9013 47.8029L79.9484 47.3713C79.6667 48.6458 79.3319 49.8776 78.9483 51.0669L80.8517 51.6809ZM82.5912 43.85C82.7592 42.5555 82.8771 41.2255 82.9418 39.8599L80.944 39.7653C80.8819 41.0774 80.7687 42.353 80.6078 43.5925L82.5912 43.85ZM82.979 35.8636C82.9432 34.566 82.8613 33.2394 82.731 31.8837L80.7402 32.075C80.8662 33.3865 80.9452 34.6677 80.9798 35.9188L82.979 35.8636ZM82.2258 27.9351C82.1212 27.2771 82.0055 26.6127 81.8787 25.942L79.9135 26.3138C80.0368 26.9655 80.1491 27.6107 80.2507 28.2493L82.2258 27.9351ZM81.8787 25.942C81.7489 25.2561 81.6091 24.5864 81.4595 23.9328L79.5099 24.3788C79.6536 25.0072 79.7883 25.652 79.9135 26.3138L81.8787 25.942ZM80.3962 20.0364C79.9665 18.6973 79.4902 17.4377 78.9715 16.2542L77.1397 17.0571C77.6297 18.175 78.082 19.3703 78.4918 20.6474L80.3962 20.0364ZM77.1008 12.6026C76.3728 11.3809 75.591 10.2634 74.7627 9.24418L73.2106 10.5055C73.976 11.4473 74.7027 12.4851 75.3826 13.6263L77.1008 12.6026ZM71.9071 6.26147C70.8442 5.32282 69.7328 4.50874 68.5857 3.80882L67.544 5.51609C68.5924 6.15579 69.6092 6.90041 70.5833 7.76059L71.9071 6.26147ZM64.8853 1.97579C63.5868 1.46759 62.2649 1.07961 60.936 0.797466L60.5206 2.75386C61.7487 3.01459 62.9653 3.37206 64.1564 3.83823L64.8853 1.97579ZM56.865 0.249154C55.4857 0.164623 54.1154 0.178488 52.7716 0.274859L52.9147 2.26974C54.1757 2.1793 55.4571 2.16663 56.7427 2.24541L56.865 0.249154ZM48.725 0.817421C47.3522 1.08685 46.0282 1.43404 44.7744 1.8401L45.3907 3.74279C46.5702 3.36078 47.817 3.03377 49.1102 2.77998L48.725 0.817421ZM40.9628 3.34866C39.6237 3.98568 38.4197 4.68675 37.3956 5.41891L38.5588 7.04586C39.4741 6.39148 40.5739 5.74842 41.822 5.15471L40.9628 3.34866ZM34.3183 8.50544C33.8519 9.27894 33.5696 10.1383 33.6772 11.0123L35.6623 10.7678C35.6274 10.485 35.7054 10.0782 36.031 9.53814L34.3183 8.50544Z" fill="#0196AF"/>
</svg>
