<svg width="48" height="49" viewBox="0 0 48 49" fill="none" xmlns="http://www.w3.org/2000/svg">
<rect x="0.5" y="1" width="47" height="47" rx="5.5" fill="white"/>
<rect x="0.5" y="1" width="47" height="47" rx="5.5" stroke="#0196AF"/>
<path d="M23.4985 22.9404C24.9985 20.2738 26.6985 14.1404 21.4985 10.9404C19.8318 13.2738 17.8985 18.9404 23.4985 22.9404Z" fill="#55B9C9"/>
<path d="M26.435 16.5725C28.7297 15.0961 32.628 10.9705 29.8637 6.27909C27.5767 7.42321 23.6892 11.0837 26.435 16.5725Z" fill="#55B9C9"/>
<path d="M18.976 18.5952C19.4908 16.4408 19.4566 11.8333 15.201 10.638C14.5039 12.5933 14.2831 16.9223 18.976 18.5952Z" fill="#55B9C9"/>
<path d="M38.5237 28.2477C36.7317 26.0803 32.0322 22.5963 27.5698 25.9998C29.0208 28.2001 33.243 31.7301 38.5237 28.2477Z" fill="#01899F"/>
<path d="M17.277 20.7716C16.2697 17.9449 12.8262 12.7382 7.11064 14.5254C7.764 17.2608 10.712 22.3396 17.277 20.7716Z" fill="#01899F"/>
<path d="M24.2816 24.2107C28.7909 24.7637 38.0909 23.57 39.2163 14.371C35.0538 13.388 26.2394 13.9799 24.2816 24.2107Z" fill="#01899F"/>
<path d="M14.9982 22.424C13.2265 21.4189 9.14721 20.2723 7.00417 23.7265C8.5536 24.8418 12.3216 26.1426 14.9982 22.424Z" fill="#01899F"/>
<path d="M21.5 24.9404L19 28.4404C18.2 24.8404 15.6667 20.2738 14.5 18.4404C17.7 18.8404 20.5 22.9404 21.5 24.9404Z" fill="#555050"/>
<path d="M24.4993 43.4404H16.9993C15.7993 29.0404 26.4993 21.1071 31.9993 18.9404C21.1993 28.9404 22.4993 39.4404 24.4993 43.4404Z" fill="#555050"/>
</svg>
