<svg width="1259" height="299" viewBox="0 0 1259 299" fill="none" xmlns="http://www.w3.org/2000/svg">
<path d="M5.1835 298.715L11.7155 293.816L6.8165 287.284L0.284524 292.183L5.1835 298.715ZM1256.5 0L1247.81 7.60279L1258.74 11.3279L1256.5 0ZM6.98995 293.141C7.06791 292.596 7.11519 291.403 7.1842 289.763L5.18597 289.679C5.11356 291.4 5.06957 292.442 5.01005 292.859L6.98995 293.141ZM7.5486 282.652C7.67858 280.612 7.8494 278.312 8.08009 275.781L6.08835 275.6C5.85581 278.151 5.68364 280.469 5.55265 282.525L7.5486 282.652ZM8.80979 268.843C9.06685 266.687 9.36583 264.418 9.7145 262.046L7.73577 261.755C7.38432 264.146 7.08297 266.433 6.82386 268.606L8.80979 268.843ZM10.8112 255.239C11.1997 253.023 11.6312 250.738 12.1108 248.392L10.1513 247.992C9.66784 250.357 9.23288 252.66 8.84125 254.894L10.8112 255.239ZM13.6041 241.583C14.1156 239.4 14.6691 237.175 15.268 234.913L13.3346 234.401C12.7307 236.682 12.1726 238.926 11.6568 241.127L13.6041 241.583ZM17.1558 228.187C17.7993 226.019 18.4852 223.824 19.2164 221.607L17.317 220.98C16.5793 223.218 15.8875 225.432 15.2385 227.618L17.1558 228.187ZM21.4906 215.05C22.2722 212.905 23.0974 210.743 23.9685 208.568L22.1119 207.824C21.2327 210.019 20.4001 212.201 19.6114 214.366L21.4906 215.05ZM26.6408 202.195C27.5619 200.094 28.5273 197.985 29.5391 195.871L27.7351 195.008C26.7135 197.142 25.7389 199.271 24.8091 201.392L26.6408 202.195ZM32.6206 189.701C33.6817 187.664 34.7877 185.625 35.9405 183.587L34.1997 182.602C33.0353 184.66 31.9183 186.72 30.8467 188.778L32.6206 189.701ZM39.4386 177.648C40.6388 175.689 41.8843 173.735 43.1766 171.788L41.5101 170.682C40.2043 172.65 38.946 174.624 37.7334 176.603L39.4386 177.648ZM47.0939 166.11C48.43 164.247 49.8114 162.392 51.2395 160.548L49.6584 159.324C48.215 161.187 46.8189 163.061 45.4686 164.944L47.0939 166.11ZM55.5737 155.162C57.0395 153.409 58.55 151.667 60.1068 149.94L58.6213 148.601C57.0476 150.347 55.5207 152.107 54.0392 153.88L55.5737 155.162ZM64.8532 144.871C66.4384 143.241 68.0675 141.626 69.7419 140.028L68.3611 138.581C66.6686 140.196 65.0217 141.829 63.4192 143.477L64.8532 144.871ZM74.8969 135.292C76.5878 133.796 78.3212 132.318 80.0983 130.859L78.8293 129.314C77.0331 130.788 75.281 132.282 73.572 133.793L74.8969 135.292ZM85.5619 126.541C87.3738 125.163 89.228 123.804 91.1254 122.467L89.973 120.832C88.0558 122.184 86.1821 123.557 84.3511 124.95L85.5619 126.541ZM96.836 118.592C98.7738 117.326 100.754 116.083 102.777 114.862L101.744 113.149C99.7003 114.382 97.7002 115.639 95.7426 116.917L96.836 118.592ZM108.672 111.44C110.676 110.321 112.72 109.224 114.806 108.15L113.89 106.372C111.785 107.456 109.721 108.564 107.697 109.694L108.672 111.44ZM121.032 105.071C123.073 104.103 125.151 103.156 127.266 102.232L126.466 100.399C124.331 101.332 122.235 102.287 120.175 103.264L121.032 105.071ZM133.727 99.5291C135.839 98.6829 137.988 97.8588 140.173 97.0576L139.484 95.1799C137.281 95.9878 135.114 96.8189 132.983 97.6725L133.727 99.5291ZM146.649 94.7865C148.842 94.0518 151.07 93.3396 153.334 92.6508L152.751 90.7374C150.47 91.4316 148.225 92.1494 146.013 92.8901L146.649 94.7865ZM159.973 90.7262C162.149 90.1263 164.357 89.5475 166.596 88.9905L166.113 87.0496C163.858 87.6107 161.634 88.1938 159.442 88.7982L159.973 90.7262ZM173.409 87.3853C175.662 86.8837 177.945 86.4036 180.26 85.9457L179.872 83.9837C177.542 84.4447 175.242 84.9281 172.974 85.4332L173.409 87.3853ZM186.943 84.7007C189.199 84.3061 191.484 83.9321 193.798 83.5791L193.496 81.602C191.168 81.9571 188.869 82.3335 186.599 82.7306L186.943 84.7007ZM200.826 82.5841C203.055 82.2927 205.31 82.0203 207.59 81.7676L207.37 79.7798C205.076 80.034 202.809 80.3079 200.567 80.601L200.826 82.5841ZM214.415 81.0775C216.716 80.8668 219.042 80.6756 221.394 80.5043L221.249 78.5096C218.884 78.6817 216.546 78.8739 214.233 79.0858L214.415 81.0775ZM228.496 80.0526C230.72 79.9313 232.966 79.8275 235.235 79.7414L235.159 77.7429C232.879 77.8293 230.622 77.9337 228.387 78.0556L228.496 80.0526ZM242.11 79.537C244.424 79.4869 246.762 79.4549 249.122 79.4414L249.111 77.4414C246.74 77.455 244.392 77.4871 242.066 77.5375L242.11 79.537ZM256.274 79.4566C258.499 79.4786 260.744 79.5167 263.008 79.5712L263.056 77.5717C260.782 77.5171 258.528 77.4788 256.294 77.4567L256.274 79.4566ZM269.86 79.7837C272.165 79.8711 274.489 79.9751 276.834 80.096L276.937 78.0987C274.583 77.9773 272.25 77.8729 269.936 77.7852L269.86 79.7837ZM283.931 80.5098C286.209 80.6577 288.506 80.8213 290.822 81.0008L290.977 79.0068C288.653 78.8267 286.347 78.6625 284.061 78.514L283.931 80.5098ZM297.595 81.5665C299.871 81.77 302.164 81.9886 304.476 82.2226L304.677 80.2327C302.358 79.998 300.057 79.7787 297.774 79.5744L297.595 81.5665ZM311.465 82.9705C313.813 83.2352 316.179 83.5155 318.563 83.8115L318.81 81.8267C316.418 81.5298 314.044 81.2486 311.689 80.9831L311.465 82.9705ZM325.315 84.6852C327.548 84.9859 329.798 85.3003 332.063 85.6283L332.35 83.649C330.078 83.32 327.822 83.0047 325.582 82.7031L325.315 84.6852ZM338.906 86.654C341.204 87.0098 343.517 87.3795 345.846 87.7633L346.171 85.7899C343.836 85.405 341.516 85.0343 339.213 84.6776L338.906 86.654ZM352.882 88.9571C355.125 89.3487 357.383 89.7532 359.656 90.1707L360.018 88.2036C357.739 87.785 355.475 87.3795 353.226 86.9869L352.882 88.9571ZM366.33 91.4259C368.568 91.8568 370.821 92.3 373.087 92.7559L373.482 90.7952C371.21 90.3382 368.952 89.8939 366.708 89.462L366.33 91.4259ZM379.929 94.1615C382.224 94.6426 384.533 95.1366 386.856 95.6433L387.283 93.6893C384.954 93.1814 382.64 92.6863 380.34 92.204L379.929 94.1615ZM393.833 97.1943C396.009 97.6869 398.196 98.1905 400.396 98.7054L400.852 96.758C398.647 96.2421 396.455 95.7373 394.275 95.2437L393.833 97.1943ZM407.033 100.284C409.258 100.821 411.495 101.37 413.744 101.93L414.227 99.9895C411.973 99.4282 409.732 98.8783 407.503 98.3397L407.033 100.284ZM420.53 103.645C422.805 104.228 425.092 104.823 427.392 105.43L427.902 103.496C425.598 102.888 423.306 102.292 421.027 101.708L420.53 103.645ZM434.316 107.28C436.47 107.863 438.634 108.457 440.809 109.06L441.344 107.133C439.165 106.529 436.997 105.934 434.839 105.35L434.316 107.28ZM447.368 110.901C449.565 111.525 451.773 112.159 453.992 112.804L454.55 110.883C452.327 110.238 450.115 109.602 447.914 108.977L447.368 110.901ZM460.683 114.768C462.924 115.434 465.176 116.109 467.44 116.795L468.02 114.881C465.753 114.194 463.497 113.517 461.252 112.851L460.683 114.768ZM474.264 118.885C475.407 119.239 476.553 119.595 477.702 119.954L478.298 118.045C477.148 117.686 476 117.329 474.855 116.975L474.264 118.885ZM477.702 119.954C478.844 120.311 479.984 120.667 481.124 121.021L481.717 119.111C480.579 118.757 479.439 118.402 478.298 118.045L477.702 119.954ZM487.944 123.126C490.212 123.822 492.475 124.512 494.732 125.196L495.312 123.282C493.057 122.599 490.796 121.909 488.53 121.214L487.944 123.126ZM501.49 127.23C503.737 127.903 505.978 128.569 508.215 129.23L508.782 127.312C506.547 126.652 504.308 125.986 502.063 125.314L501.49 127.23ZM514.909 131.194C517.135 131.843 519.356 132.486 521.572 133.123L522.125 131.201C519.911 130.564 517.693 129.922 515.469 129.274L514.909 131.194ZM528.44 135.085C530.73 135.734 533.015 136.377 535.293 137.014L535.832 135.088C533.555 134.452 531.274 133.809 528.986 133.161L528.44 135.085ZM542.112 138.906C544.38 139.531 546.641 140.149 548.897 140.762L549.421 138.831C547.168 138.22 544.908 137.602 542.643 136.978L542.112 138.906ZM555.649 142.58C557.894 143.18 560.133 143.773 562.366 144.361L562.875 142.427C560.644 141.84 558.408 141.247 556.165 140.648L555.649 142.58ZM569.208 146.147C571.517 146.744 573.82 147.335 576.116 147.92L576.61 145.982C574.315 145.398 572.015 144.807 569.709 144.21L569.208 146.147ZM582.989 149.654C585.274 150.226 587.552 150.791 589.825 151.35L590.302 149.408C588.032 148.85 585.756 148.285 583.474 147.714L582.989 149.654ZM596.625 153.006C598.885 153.552 601.14 154.091 603.388 154.624L603.849 152.678C601.604 152.146 599.352 151.607 597.094 151.062L596.625 153.006ZM610.252 156.235C612.577 156.776 614.895 157.309 617.207 157.836L617.651 155.886C615.342 155.36 613.027 154.827 610.705 154.287L610.252 156.235ZM624.123 159.395C626.421 159.908 628.713 160.414 630.999 160.914L631.426 158.96C629.143 158.461 626.854 157.956 624.558 157.443L624.123 159.395ZM637.836 162.391C640.109 162.877 642.375 163.356 644.635 163.829L645.044 161.871C642.787 161.399 640.524 160.921 638.254 160.436L637.836 162.391ZM651.572 165.262C653.909 165.738 656.238 166.208 658.56 166.671L658.951 164.709C656.632 164.247 654.305 163.778 651.972 163.302L651.572 165.262ZM665.506 168.036C667.815 168.484 670.116 168.925 672.41 169.359L672.782 167.394C670.491 166.961 668.193 166.52 665.888 166.073L665.506 168.036ZM679.272 170.639C681.555 171.059 683.831 171.472 686.1 171.878L686.452 169.909C684.187 169.504 681.914 169.092 679.634 168.672L679.272 170.639ZM693.153 173.121C695.496 173.527 697.831 173.926 700.159 174.318L700.491 172.346C698.166 171.955 695.834 171.556 693.495 171.15L693.153 173.121ZM707.121 175.47C709.434 175.846 711.739 176.215 714.037 176.577L714.348 174.601C712.054 174.24 709.752 173.872 707.442 173.496L707.121 175.47ZM720.908 177.639C723.249 177.994 725.582 178.341 727.906 178.681L728.196 176.702C725.875 176.363 723.546 176.016 721.208 175.661L720.908 177.639ZM734.963 179.692C737.307 180.021 739.643 180.342 741.971 180.655L742.238 178.673C739.914 178.361 737.582 178.04 735.241 177.712L734.963 179.692ZM748.93 181.571C751.242 181.869 753.545 182.158 755.841 182.44L756.084 180.455C753.793 180.174 751.493 179.885 749.186 179.588L748.93 181.571ZM762.821 183.276C765.195 183.553 767.559 183.821 769.915 184.081L770.134 182.094C767.783 181.834 765.422 181.566 763.053 181.289L762.821 183.276ZM776.956 184.837C779.294 185.08 781.623 185.316 783.944 185.543L784.138 183.552C781.822 183.325 779.497 183.091 777.163 182.848L776.956 184.837ZM790.879 186.199C793.223 186.413 795.559 186.619 797.885 186.816L798.054 184.823C795.732 184.626 793.401 184.421 791.061 184.207L790.879 186.199ZM804.999 187.396C807.361 187.58 809.713 187.755 812.056 187.922L812.198 185.927C809.86 185.761 807.512 185.586 805.155 185.402L804.999 187.396ZM819.057 188.397C821.38 188.546 823.695 188.687 826 188.819L826.114 186.823C823.814 186.691 821.504 186.55 819.185 186.401L819.057 188.397ZM833.072 189.2C835.454 189.319 837.826 189.429 840.187 189.53L840.273 187.532C837.916 187.431 835.549 187.321 833.172 187.202L833.072 189.2ZM847.241 189.806C849.582 189.889 851.913 189.962 854.233 190.027L854.289 188.028C851.973 187.963 849.648 187.89 847.312 187.807L847.241 189.806ZM861.177 190.194C863.575 190.242 865.962 190.281 868.338 190.31L868.362 188.31C865.992 188.281 863.61 188.242 861.218 188.194L861.177 190.194ZM875.431 190.367C877.785 190.377 880.127 190.377 882.459 190.368L882.45 188.368C880.125 188.377 877.788 188.377 875.44 188.367L875.431 190.367ZM889.419 190.311C891.792 190.281 894.152 190.242 896.5 190.193L896.459 188.194C894.116 188.243 891.761 188.282 889.395 188.311L889.419 190.311ZM903.617 190.013C905.978 189.943 908.326 189.863 910.662 189.772L910.585 187.774C908.255 187.864 905.912 187.944 903.558 188.014L903.617 190.013ZM917.636 189.472C919.989 189.359 922.329 189.237 924.657 189.104L924.544 187.108C922.222 187.24 919.887 187.362 917.541 187.474L917.636 189.472ZM931.777 188.665C934.138 188.507 936.485 188.34 938.82 188.161L938.667 186.167C936.339 186.345 933.998 186.512 931.644 186.669L931.777 188.665ZM945.784 187.595C948.128 187.393 950.458 187.18 952.775 186.956L952.583 184.966C950.273 185.188 947.949 185.401 945.612 185.602L945.784 187.595ZM959.875 186.234C962.227 185.982 964.565 185.719 966.89 185.445L966.655 183.459C964.338 183.732 962.007 183.994 959.661 184.245L959.875 186.234ZM973.82 184.59C976.163 184.288 978.491 183.975 980.804 183.651L980.526 181.67C978.221 181.994 975.9 182.306 973.565 182.607L973.82 184.59ZM987.854 182.622C990.189 182.267 992.509 181.901 994.813 181.523L994.49 179.549C992.193 179.926 989.881 180.291 987.554 180.644L987.854 182.622ZM1001.68 180.356C1004.03 179.943 1006.36 179.518 1008.67 179.081L1008.3 177.115C1005.99 177.551 1003.67 177.975 1001.33 178.386L1001.68 180.356ZM1015.64 177.719C1017.95 177.254 1020.24 176.776 1022.51 176.286L1022.09 174.331C1019.82 174.819 1017.54 175.295 1015.24 175.759L1015.64 177.719ZM1029.33 174.771C1031.66 174.236 1033.98 173.688 1036.28 173.128L1035.81 171.185C1033.52 171.743 1031.21 172.289 1028.88 172.822L1029.33 174.771ZM1043.13 171.409C1045.39 170.824 1047.64 170.226 1049.87 169.616L1049.34 167.687C1047.12 168.295 1044.89 168.89 1042.63 169.473L1043.13 171.409ZM1056.71 167.691C1059 167.03 1061.26 166.355 1063.51 165.667L1062.92 163.755C1060.69 164.439 1058.43 165.111 1056.15 165.77L1056.71 167.691ZM1070.19 163.566C1072.44 162.84 1074.67 162.1 1076.88 161.348L1076.24 159.455C1074.04 160.204 1071.82 160.94 1069.58 161.663L1070.19 163.566ZM1083.6 158.999C1085.82 158.203 1088.01 157.394 1090.19 156.571L1089.48 154.7C1087.32 155.519 1085.13 156.325 1082.92 157.117L1083.6 158.999ZM1096.73 154.033C1098.96 153.15 1101.15 152.252 1103.33 151.341L1102.56 149.496C1100.39 150.403 1098.21 151.296 1095.99 152.175L1096.73 154.033ZM1109.8 148.566C1111.95 147.618 1114.08 146.657 1116.19 145.681L1115.35 143.866C1113.25 144.836 1111.13 145.793 1108.99 146.736L1109.8 148.566ZM1122.63 142.627C1124.75 141.595 1126.85 140.549 1128.93 139.489L1128.02 137.708C1125.95 138.762 1123.87 139.802 1121.76 140.829L1122.63 142.627ZM1135.16 136.226C1137.26 135.097 1139.34 133.953 1141.39 132.795L1140.41 131.053C1138.37 132.204 1136.3 133.341 1134.21 134.464L1135.16 136.226ZM1147.47 129.279C1149.51 128.07 1151.52 126.846 1153.51 125.608L1152.45 123.911C1150.48 125.141 1148.48 126.357 1146.45 127.558L1147.47 129.279ZM1159.49 121.788C1161.46 120.5 1163.39 119.197 1165.3 117.881L1164.17 116.234C1162.27 117.542 1160.35 118.835 1158.39 120.115L1159.49 121.788ZM1171.11 113.777C1173.03 112.385 1174.92 110.979 1176.78 109.559L1175.57 107.969C1173.72 109.379 1171.84 110.776 1169.94 112.158L1171.11 113.777ZM1182.31 105.228C1184.17 103.732 1186 102.221 1187.8 100.696L1186.51 99.1707C1184.72 100.685 1182.9 102.184 1181.06 103.67L1182.31 105.228ZM1193.1 96.0777C1194.87 94.4936 1196.61 92.895 1198.32 91.2822L1196.95 89.8285C1195.25 91.4286 1193.53 93.0149 1191.77 94.587L1193.1 96.0777ZM1203.4 86.3509C1205.06 84.6846 1206.7 83.0042 1208.3 81.3102L1206.85 79.9361C1205.26 81.6163 1203.64 83.2831 1201.98 84.9361L1203.4 86.3509ZM1213.11 76.0722C1214.68 74.3123 1216.21 72.5386 1217.71 70.7517L1216.18 69.4658C1214.69 71.2374 1213.17 72.9961 1211.62 74.7414L1213.11 76.0722ZM1222.19 65.246C1223.66 63.3878 1225.09 61.5163 1226.48 59.6318L1224.88 58.4425C1223.49 60.3102 1222.08 62.1654 1220.62 64.0075L1222.19 65.246ZM1230.6 53.8852C1231.95 51.934 1233.26 49.97 1234.53 47.9938L1232.85 46.9092C1231.59 48.8674 1230.29 50.8135 1228.95 52.7471L1230.6 53.8852ZM1238.26 42.0115C1239.48 39.9744 1240.67 37.9252 1241.81 35.8644L1240.07 34.8923C1238.93 36.9338 1237.76 38.9638 1236.54 40.982L1238.26 42.0115ZM1245.14 29.648C1246.22 27.5363 1247.26 25.4134 1248.27 23.2799L1246.46 22.4276C1245.46 24.5406 1244.43 26.6432 1243.36 28.7348L1245.14 29.648ZM1251.17 16.8392C1252.11 14.6647 1253 12.4801 1253.86 10.2859L1251.99 9.55943C1251.15 11.7322 1250.26 13.8956 1249.33 16.049L1251.17 16.8392Z" fill="#0196AF"/>
</svg>
