<svg width="299" height="811" viewBox="0 0 299 811" fill="none" xmlns="http://www.w3.org/2000/svg">
<path d="M298.75 805.526L293.526 799.251L287.251 804.474L292.474 810.749L298.75 805.526ZM119 502.663L119.899 503.102L119 502.663ZM-3.50128e-05 4L8.53681 11.7753L11.002 0.494567L-3.50128e-05 4ZM293.091 804.004C292.564 803.956 291.383 803.926 289.705 803.881L289.651 805.88C291.382 805.927 292.465 805.955 292.909 805.996L293.091 804.004ZM282.513 803.643C280.444 803.558 278.109 803.446 275.541 803.295L275.423 805.292C278.005 805.444 280.351 805.556 282.431 805.642L282.513 803.643ZM268.496 802.816C266.29 802.645 263.966 802.447 261.538 802.216L261.348 804.206C263.789 804.439 266.125 804.639 268.342 804.81L268.496 802.816ZM254.601 801.49C252.338 801.233 250.006 800.946 247.611 800.628L247.348 802.611C249.755 802.931 252.1 803.218 254.375 803.477L254.601 801.49ZM240.584 799.625C238.34 799.282 236.052 798.911 233.727 798.509L233.386 800.479C235.725 800.884 238.025 801.257 240.283 801.602L240.584 799.625ZM226.797 797.238C224.528 796.797 222.23 796.326 219.909 795.824L219.486 797.779C221.822 798.284 224.133 798.758 226.416 799.201L226.797 797.238ZM213.084 794.268C210.816 793.724 208.53 793.148 206.232 792.54L205.72 794.473C208.034 795.086 210.335 795.665 212.618 796.213L213.084 794.268ZM199.511 790.673C197.272 790.021 195.026 789.337 192.776 788.619L192.167 790.524C194.434 791.248 196.697 791.937 198.952 792.593L199.511 790.673ZM186.139 786.401C183.938 785.632 181.738 784.829 179.542 783.991L178.828 785.859C181.043 786.705 183.261 787.514 185.479 788.289L186.139 786.401ZM173.034 781.393C170.882 780.496 168.739 779.562 166.606 778.592L165.777 780.412C167.93 781.392 170.094 782.334 172.264 783.239L173.034 781.393ZM160.277 775.581C158.189 774.544 156.116 773.469 154.061 772.353L153.107 774.111C155.184 775.238 157.279 776.325 159.387 777.372L160.277 775.581ZM147.967 768.897C145.963 767.708 143.98 766.479 142.022 765.208L140.933 766.886C142.915 768.172 144.921 769.415 146.947 770.617L147.967 768.897ZM136.23 761.273C134.334 759.924 132.465 758.532 130.627 757.096L129.395 758.672C131.258 760.127 133.151 761.537 135.071 762.903L136.23 761.273ZM125.213 752.658C123.453 751.144 121.726 749.585 120.037 747.979L118.659 749.429C120.373 751.058 122.124 752.639 123.908 754.174L125.213 752.658ZM115.084 743.026C113.491 741.348 111.938 739.624 110.426 737.852L108.904 739.15C110.439 740.949 112.017 742.7 113.633 744.403L115.084 743.026ZM106.023 732.396C104.627 730.564 103.273 728.685 101.966 726.758L100.311 727.881C101.639 729.839 103.014 731.748 104.433 733.609L106.023 732.396ZM98.1905 720.837C97.0136 718.87 95.883 716.857 94.8012 714.795L93.0302 715.724C94.1294 717.819 95.2784 719.865 96.4743 721.864L98.1905 720.837ZM91.7053 708.464C90.7628 706.39 89.8678 704.271 89.0228 702.105L87.1595 702.832C88.0178 705.032 88.9269 707.185 89.8845 709.292L91.7053 708.464ZM86.6405 695.468C85.9304 693.307 85.268 691.103 84.6556 688.854L82.7259 689.38C83.3473 691.662 84.0195 693.899 84.7405 696.093L86.6405 695.468ZM82.9818 682.025C82.4934 679.791 82.0524 677.516 81.6608 675.198L79.6888 675.531C80.0857 677.88 80.5327 680.187 81.028 682.453L82.9818 682.025ZM80.6576 668.296C80.3756 665.989 80.1407 663.643 79.9547 661.256L77.9607 661.411C78.149 663.827 78.3868 666.202 78.6724 668.538L80.6576 668.296ZM79.5597 654.388C79.4725 652.062 79.4302 649.7 79.4342 647.3L77.4342 647.296C77.4302 649.722 77.4729 652.111 77.5611 654.463L79.5597 654.388ZM79.5725 640.352C79.6586 638.071 79.7853 635.758 79.9536 633.412L77.9587 633.269C77.7888 635.637 77.6609 637.973 77.5739 640.276L79.5725 640.352ZM80.5847 626.277C80.8199 624.032 81.0922 621.759 81.4024 619.457L79.4203 619.189C79.1075 621.511 78.8329 623.804 78.5956 626.068L80.5847 626.277ZM82.4318 612.559C82.8124 610.231 83.2307 607.874 83.6876 605.489L81.7233 605.113C81.263 607.516 80.8415 609.89 80.458 612.236L82.4318 612.559ZM85.0657 598.746C85.5502 596.514 86.0676 594.257 86.6187 591.975L84.6746 591.505C84.1199 593.802 83.599 596.074 83.1112 598.322L85.0657 598.746ZM88.3733 585.055C88.9665 582.82 89.5911 580.563 90.2478 578.282L88.3259 577.728C87.6654 580.022 87.037 582.294 86.4402 584.542L88.3733 585.055ZM92.2133 571.696C92.8978 569.479 93.612 567.241 94.3563 564.982L92.4567 564.356C91.7086 566.627 90.9906 568.877 90.3023 571.106L92.2133 571.696ZM96.6797 558.139C97.4258 556.005 98.1981 553.852 98.9972 551.68L97.1201 550.989C96.3175 553.171 95.5414 555.334 94.7917 557.479L96.6797 558.139ZM101.437 545.205C102.276 543.028 103.142 540.833 104.034 538.62L102.179 537.872C101.283 540.095 100.414 542.299 99.5708 544.485L101.437 545.205ZM106.791 531.923C107.667 529.838 108.566 527.738 109.488 525.621L107.655 524.822C106.729 526.947 105.826 529.055 104.947 531.148L106.791 531.923ZM112.288 519.306C113.245 517.186 114.224 515.049 115.227 512.897L113.414 512.052C112.408 514.212 111.425 516.356 110.465 518.484L112.288 519.306ZM118.306 506.391C118.831 505.298 119.362 504.202 119.899 503.102L118.101 502.225C117.563 503.329 117.03 504.429 116.503 505.524L118.306 506.391ZM119.899 503.102C120.424 502.025 120.946 500.95 121.465 499.877L119.665 499.006C119.147 500.077 118.626 501.15 118.101 502.225L119.899 503.102ZM124.54 493.459C125.552 491.327 126.552 489.203 127.539 487.085L125.726 486.24C124.741 488.353 123.744 490.474 122.734 492.601L124.54 493.459ZM130.461 480.755C131.423 478.649 132.374 476.55 133.311 474.458L131.486 473.64C130.551 475.727 129.603 477.822 128.642 479.923L130.461 480.755ZM136.211 467.922C137.163 465.751 138.102 463.589 139.028 461.434L137.19 460.645C136.267 462.795 135.33 464.952 134.379 467.118L136.211 467.922ZM141.763 454.993C142.661 452.854 143.546 450.723 144.418 448.6L142.567 447.841C141.698 449.959 140.815 452.085 139.919 454.219L141.763 454.993ZM147.084 442.024C147.967 439.817 148.836 437.62 149.691 435.43L147.827 434.703C146.975 436.887 146.108 439.079 145.227 441.281L147.084 442.024ZM152.21 428.889C153.036 426.717 153.847 424.554 154.643 422.399L152.768 421.705C151.973 423.854 151.164 426.012 150.341 428.178L152.21 428.889ZM157.067 415.748C157.871 413.51 158.659 411.281 159.431 409.061L157.542 408.404C156.772 410.617 155.986 412.84 155.185 415.072L157.067 415.748ZM161.702 402.431C162.444 400.23 163.17 398.039 163.881 395.857L161.98 395.238C161.271 397.413 160.547 399.598 159.807 401.792L161.702 402.431ZM166.047 389.09C166.759 386.824 167.454 384.569 168.133 382.325L166.219 381.746C165.542 383.984 164.849 386.232 164.139 388.49L166.047 389.09ZM170.119 375.622C170.768 373.387 171.401 371.163 172.017 368.949L170.09 368.413C169.476 370.62 168.846 372.837 168.199 375.064L170.119 375.622ZM173.89 362.059C174.496 359.774 175.085 357.5 175.657 355.237L173.718 354.747C173.148 357.002 172.561 359.268 171.957 361.546L173.89 362.059ZM177.319 348.482C177.869 346.182 178.402 343.894 178.916 341.618L176.965 341.177C176.453 343.445 175.922 345.724 175.374 348.016L177.319 348.482ZM180.434 334.689C180.921 332.391 181.39 330.106 181.84 327.833L179.878 327.445C179.43 329.709 178.963 331.985 178.478 334.274L180.434 334.689ZM183.144 320.995C183.576 318.641 183.988 316.301 184.38 313.975L182.408 313.642C182.018 315.959 181.608 318.29 181.177 320.634L183.144 320.995ZM185.497 307.035C185.849 304.736 186.182 302.449 186.495 300.176L184.514 299.903C184.202 302.166 183.871 304.442 183.52 306.732L185.497 307.035ZM187.412 293.104C187.698 290.755 187.962 288.421 188.205 286.102L186.216 285.894C185.974 288.202 185.711 290.525 185.427 292.863L187.412 293.104ZM188.872 279.188C189.081 276.81 189.269 274.447 189.434 272.1L187.439 271.959C187.274 274.295 187.088 276.646 186.88 279.013L188.872 279.188ZM189.865 265.062C189.987 262.732 190.087 260.418 190.165 258.12L188.166 258.052C188.088 260.338 187.989 262.64 187.868 264.958L189.865 265.062ZM190.337 251.005C190.371 248.641 190.382 246.294 190.37 243.964L188.37 243.975C188.382 246.291 188.371 248.625 188.337 250.976L190.337 251.005ZM190.263 237.006C190.202 234.614 190.117 232.241 190.007 229.886L188.009 229.979C188.118 232.32 188.203 234.679 188.264 237.057L190.263 237.006ZM189.603 222.877C189.442 220.527 189.256 218.196 189.046 215.884L187.054 216.066C187.263 218.363 187.448 220.679 187.608 223.014L189.603 222.877ZM188.322 208.831C188.055 206.5 187.763 204.189 187.446 201.897L185.465 202.172C185.78 204.447 186.07 206.743 186.335 209.059L188.322 208.831ZM186.39 194.897C186.008 192.562 185.6 190.248 185.165 187.956L183.2 188.329C183.631 190.604 184.037 192.901 184.416 195.22L186.39 194.897ZM183.773 181.093C183.27 178.766 182.739 176.461 182.181 174.179L180.238 174.654C180.792 176.919 181.319 179.206 181.818 181.516L183.773 181.093ZM180.427 167.402C179.8 165.11 179.146 162.842 178.464 160.597L176.55 161.179C177.226 163.405 177.876 165.655 178.497 167.929L180.427 167.402ZM176.322 153.891C175.571 151.654 174.793 149.44 173.988 147.252L172.111 147.943C172.91 150.113 173.681 152.308 174.425 154.527L176.322 153.891ZM171.447 140.656C170.57 138.475 169.665 136.32 168.732 134.191L166.9 134.994C167.825 137.104 168.722 139.24 169.592 141.402L171.447 140.656ZM165.789 127.744C164.779 125.621 163.742 123.525 162.678 121.456L160.899 122.37C161.954 124.421 162.982 126.499 163.982 128.603L165.789 127.744ZM159.339 115.211C158.195 113.152 157.024 111.121 155.825 109.117L154.109 110.144C155.296 112.129 156.457 114.142 157.59 116.182L159.339 115.211ZM152.101 103.115C150.826 101.132 149.523 99.1775 148.193 97.2515L146.547 98.3877C147.865 100.296 149.155 102.232 150.419 104.197L152.101 103.115ZM144.091 91.5143C142.688 89.6184 141.258 87.7516 139.802 85.9141L138.234 87.1562C139.677 88.9766 141.094 90.8259 142.484 92.7041L144.091 91.5143ZM135.334 80.4636C133.81 78.6647 132.259 76.8955 130.683 75.1559L129.2 76.4987C130.762 78.222 132.298 79.9747 133.809 81.7568L135.334 80.4636ZM125.867 70.013C124.228 68.3193 122.564 66.6558 120.876 65.0221L119.485 66.4592C121.158 68.0778 122.806 69.7259 124.43 71.4038L125.867 70.013ZM115.734 60.205C113.989 58.6232 112.221 57.0715 110.43 55.55L109.135 57.0742C110.91 58.5818 112.662 60.1193 114.39 61.6866L115.734 60.205ZM104.987 51.0736C103.146 49.6084 101.283 48.1733 99.3987 46.7684L98.2033 48.3718C100.071 49.7642 101.917 51.1864 103.741 52.6384L104.987 51.0736ZM93.6817 42.6437C91.7544 41.2983 89.8064 39.9829 87.8385 38.6975L86.7448 40.3719C88.6956 41.6462 90.6266 42.9501 92.5369 44.2836L93.6817 42.6437ZM81.8763 34.9313C79.8722 33.7074 77.8491 32.5133 75.8076 31.3489L74.8167 33.0862C76.841 34.2408 78.847 35.4247 80.834 36.6382L81.8763 34.9313ZM69.6292 27.9448C67.5578 26.8428 65.4689 25.7703 63.3634 24.7271L62.4755 26.5192C64.5639 27.5539 66.6356 28.6176 68.6899 29.7105L69.6292 27.9448ZM56.9981 21.6858C54.868 20.705 52.722 19.7531 50.5611 18.8303L49.7756 20.6696C51.9195 21.5851 54.0485 22.5295 56.1616 23.5025L56.9981 21.6858ZM44.0366 16.1497C41.856 15.2884 39.6612 14.4558 37.4531 13.6518L36.7688 15.5311C38.9602 16.329 41.1382 17.1552 43.302 18.0098L44.0366 16.1497ZM30.7953 11.3273C28.5719 10.5839 26.336 9.86859 24.0883 9.18146L23.5036 11.0941C25.7348 11.7762 27.9542 12.4862 30.161 13.2241L30.7953 11.3273ZM17.3209 7.20715C15.0619 6.57928 12.7919 5.97913 10.5117 5.40662L10.0247 7.34644C12.2888 7.91486 14.5425 8.51074 16.7853 9.13409L17.3209 7.20715Z" fill="#0196AF"/>
</svg>
