<svg width="52" height="48" viewBox="0 0 52 48" fill="none" xmlns="http://www.w3.org/2000/svg">
<path id="Vector" fillRule="evenodd" clipRule="evenodd" d="M13.005 16.5947C13.4288 16.5678 13.8668 16.4889 14.3157 16.3515C16.9638 15.5407 19.4061 14.2993 21.7388 12.8979C22.8573 13.9359 24.3553 14.5706 26.0017 14.5706C27.6481 14.5706 29.1462 13.9359 30.2646 12.8979C32.5973 14.2993 35.0396 15.5407 37.6878 16.3515C38.1366 16.4889 38.5745 16.5678 38.9984 16.5947C40.2 18.0784 41.1529 19.7722 41.7931 21.6127L42.1995 22.7807L43.419 22.9865C45.392 23.3193 46.8951 25.0395 46.8951 27.1066C46.8951 29.1738 45.392 30.894 43.419 31.2268L42.1995 31.4326L41.7931 32.6006C39.5197 39.1358 33.3052 43.8213 26.0017 43.8213C18.6982 43.8213 12.4837 39.1358 10.2103 32.6006L9.80399 31.4326L8.58447 31.2268C6.61149 30.894 5.10836 29.1738 5.10836 27.1066C5.10836 25.0395 6.61149 23.3193 8.58447 22.9865L9.80399 22.7807L10.2103 21.6127C10.8505 19.7722 11.8034 18.0784 13.005 16.5947ZM8.96732 15.0066C7.86135 13.8811 7.19769 12.2946 7.19769 10.6914V5.91385C7.19769 2.43369 10.3252 -0.96796 14.3157 0.253806C16.9638 1.06458 19.4061 2.30599 21.7388 3.70741C22.8573 2.66935 24.3553 2.03463 26.0017 2.03463C27.6481 2.03463 29.1462 2.66935 30.2646 3.70741C32.5973 2.30599 35.0396 1.06458 37.6878 0.253806C41.6782 -0.96796 44.8057 2.43371 44.8057 5.91388V10.6914C44.8057 12.2946 44.1422 13.8811 43.0361 15.0066C43.9516 16.2933 44.7251 17.688 45.3333 19.1678C48.6674 20.2665 51.0737 23.4039 51.0737 27.1066C51.0737 30.8094 48.6674 33.9467 45.3333 35.0455C42.2091 42.645 34.7332 48 26.0017 48C17.2701 48 9.79426 42.645 6.67007 35.0455C3.336 33.9467 0.929688 30.8094 0.929688 27.1066C0.929688 23.4039 3.336 20.2665 6.67005 19.1678C7.27842 17.688 8.05179 16.2933 8.96732 15.0066ZM19.796 7.41571C17.5531 6.05491 15.3728 4.94758 13.0924 4.24941C12.6711 4.12043 12.3025 4.21533 11.9869 4.48711C11.6446 4.78185 11.3764 5.29242 11.3764 5.91385V10.6914C11.3764 11.3128 11.6446 11.8234 11.9869 12.1182C12.3025 12.3899 12.6711 12.4848 13.0924 12.3559C15.3728 11.6577 17.5531 10.5503 19.796 9.18956C19.7549 8.89981 19.7337 8.60371 19.7337 8.30263C19.7337 8.00156 19.7549 7.70546 19.796 7.41571ZM38.9111 12.3559C36.6306 11.6577 34.4504 10.5504 32.2075 9.18956C32.2484 8.89981 32.2697 8.60371 32.2697 8.30263C32.2697 8.00156 32.2484 7.70546 32.2075 7.41571C34.4504 6.05493 36.6306 4.94758 38.9111 4.24941C39.3323 4.12043 39.7009 4.21533 40.0166 4.48711C40.3588 4.78185 40.6271 5.29244 40.6271 5.91388V10.6914C40.6271 11.3128 40.3588 11.8234 40.0166 12.1182C39.7009 12.3899 39.3323 12.4848 38.9111 12.3559ZM23.9124 8.30263C23.9124 7.14873 24.8478 6.2133 26.0017 6.2133C27.1556 6.2133 28.091 7.14873 28.091 8.30263C28.091 9.45653 27.1556 10.392 26.0017 10.392C24.8478 10.392 23.9124 9.45653 23.9124 8.30263ZM23.6917 34.5296C23.1757 33.4975 21.9208 33.0792 20.8887 33.5953C19.8566 34.1114 19.4382 35.3662 19.9543 36.3983C21.1555 38.8009 23.8752 39.6427 26.0017 39.6427C28.1282 39.6427 30.8479 38.8009 32.0491 36.3983C32.5651 35.3662 32.1469 34.1114 31.1147 33.5953C30.0826 33.0792 28.8277 33.4975 28.3117 34.5296C28.1201 34.9128 27.3573 35.464 26.0017 35.464C24.6461 35.464 23.8833 34.9128 23.6917 34.5296ZM35.4037 27.1066C35.4037 28.8375 34.0005 30.2407 32.2697 30.2407C30.5389 30.2407 29.1357 28.8375 29.1357 27.1066C29.1357 25.3758 30.5389 23.9726 32.2697 23.9726C34.0005 23.9726 35.4037 25.3758 35.4037 27.1066ZM19.7337 30.2407C21.4646 30.2407 22.8677 28.8375 22.8677 27.1066C22.8677 25.3758 21.4646 23.9726 19.7337 23.9726C18.0028 23.9726 16.5997 25.3758 16.5997 27.1066C16.5997 28.8375 18.0028 30.2407 19.7337 30.2407Z" fill="#0196AF"/>
</svg>
